<?xml version="1.0" encoding="UTF-8" standalone="no"?>
<!-- Created with Inkscape (http://www.inkscape.org/) -->

<svg
   width="320"
   height="320"
   viewBox="0 0 84.666665 84.666665"
   version="1.1"
   id="svg1"
   inkscape:version="1.3.2 (091e20e, 2023-11-25, custom)"
   sodipodi:docname="player.svg"
   inkscape:export-filename="player.png"
   inkscape:export-xdpi="96"
   inkscape:export-ydpi="96"
   xmlns:inkscape="http://www.inkscape.org/namespaces/inkscape"
   xmlns:sodipodi="http://sodipodi.sourceforge.net/DTD/sodipodi-0.dtd"
   xmlns="http://www.w3.org/2000/svg"
   xmlns:svg="http://www.w3.org/2000/svg">
  <sodipodi:namedview
     id="namedview1"
     pagecolor="#ffffff"
     bordercolor="#000000"
     borderopacity="0.25"
     inkscape:showpageshadow="2"
     inkscape:pageopacity="0.0"
     inkscape:pagecheckerboard="0"
     inkscape:deskcolor="#d1d1d1"
     inkscape:document-units="mm"
     showgrid="true"
     inkscape:zoom="2.3601172"
     inkscape:cx="141.73025"
     inkscape:cy="220.53989"
     inkscape:window-width="1920"
     inkscape:window-height="1009"
     inkscape:window-x="-8"
     inkscape:window-y="-8"
     inkscape:window-maximized="1"
     inkscape:current-layer="layer1">
    <inkscape:grid
       id="grid1"
       units="px"
       originx="0"
       originy="0"
       spacingx="2.1166666"
       spacingy="2.1166666"
       empcolor="#0099e5"
       empopacity="0.30196078"
       color="#0099e5"
       opacity="0.14901961"
       empspacing="8"
       dotted="false"
       gridanglex="30"
       gridanglez="30"
       visible="true" />
  </sodipodi:namedview>
  <defs
     id="defs1" />
  <g
     inkscape:label="Layer 1"
     inkscape:groupmode="layer"
     id="layer1">
    <path
       style="fill:#cdc7c0;fill-opacity:1;stroke:#463f4e;stroke-width:0.79375;stroke-linecap:round;stroke-linejoin:round;stroke-dasharray:none;stroke-opacity:1;paint-order:fill markers stroke"
       id="path8"
       sodipodi:type="arc"
       sodipodi:cx="-25.4"
       sodipodi:cy="-8.4666662"
       sodipodi:rx="7.9375"
       sodipodi:ry="7.9375"
       sodipodi:start="0.78539816"
       sodipodi:end="2.3561945"
       sodipodi:arc-type="slice"
       d="M -19.78734,-2.8540062 A 7.9375,7.9375 0 0 1 -25.4,-0.52916622 7.9375,7.9375 0 0 1 -31.01266,-2.8540062 l 5.61266,-5.61266 z"
       transform="scale(-1)" />
    <path
       style="fill:#cdc7c0;fill-opacity:1;stroke:#463f4e;stroke-width:0.79375;stroke-linecap:round;stroke-linejoin:round;stroke-dasharray:none;stroke-opacity:1;paint-order:fill markers stroke"
       id="path9"
       sodipodi:type="arc"
       sodipodi:cx="25.4"
       sodipodi:cy="25.4"
       sodipodi:rx="7.9375"
       sodipodi:ry="7.9375"
       sodipodi:start="0.78539816"
       sodipodi:end="2.3561945"
       sodipodi:arc-type="slice"
       d="M 31.01266,31.01266 A 7.9375,7.9375 0 0 1 25.4,33.3375 7.9375,7.9375 0 0 1 19.787339,31.01266 L 25.4,25.4 Z" />
    <path
       style="fill:#cdc7c0;fill-opacity:1;stroke:#463f4e;stroke-width:0.79375;stroke-linecap:round;stroke-linejoin:round;stroke-dasharray:none;stroke-opacity:1;paint-order:fill markers stroke"
       id="path10"
       sodipodi:type="arc"
       sodipodi:cx="42.333332"
       sodipodi:cy="-25.4"
       sodipodi:rx="7.9375"
       sodipodi:ry="7.9375"
       sodipodi:start="0.78539816"
       sodipodi:end="2.3561945"
       sodipodi:arc-type="slice"
       d="m 47.945992,-19.78734 a 7.9375,7.9375 0 0 1 -5.61266,2.32484 7.9375,7.9375 0 0 1 -5.61266,-2.32484 L 42.333332,-25.4 Z"
       transform="rotate(90)" />
    <path
       style="fill:#cdc7c0;fill-opacity:1;stroke:#463f4e;stroke-width:0.79375;stroke-linecap:round;stroke-linejoin:round;stroke-dasharray:none;stroke-opacity:1;paint-order:fill markers stroke"
       id="path11"
       sodipodi:type="arc"
       sodipodi:cx="59.266666"
       sodipodi:cy="25.4"
       sodipodi:rx="7.9375"
       sodipodi:ry="7.9375"
       sodipodi:start="0.78539816"
       sodipodi:end="2.3561945"
       sodipodi:arc-type="slice"
       d="m 64.879327,31.01266 a 7.9375,7.9375 0 0 1 -5.612661,2.32484 7.9375,7.9375 0 0 1 -5.61266,-2.32484 L 59.266666,25.4 Z"
       transform="matrix(0,1,1,0,0,0)" />
    <path
       style="fill:#da593f;fill-opacity:1;stroke:#463f4e;stroke-width:0.79375;stroke-linecap:round;stroke-linejoin:round;stroke-dasharray:none;stroke-opacity:1;paint-order:fill markers stroke"
       id="path12"
       sodipodi:type="arc"
       sodipodi:cx="-42.333336"
       sodipodi:cy="-8.4666662"
       sodipodi:rx="7.9375"
       sodipodi:ry="7.9375"
       sodipodi:start="0.78539816"
       sodipodi:end="2.3561945"
       sodipodi:arc-type="slice"
       d="m -36.720676,-2.8540062 a 7.9375,7.9375 0 0 1 -5.61266,2.32483998 7.9375,7.9375 0 0 1 -5.61266,-2.32483998 l 5.61266,-5.61266 z"
       transform="scale(-1)" />
    <path
       style="fill:#da593f;fill-opacity:1;stroke:#463f4e;stroke-width:0.79375;stroke-linecap:round;stroke-linejoin:round;stroke-dasharray:none;stroke-opacity:1;paint-order:fill markers stroke"
       id="path13"
       sodipodi:type="arc"
       sodipodi:cx="42.333336"
       sodipodi:cy="25.4"
       sodipodi:rx="7.9375"
       sodipodi:ry="7.9375"
       sodipodi:start="0.78539816"
       sodipodi:end="2.3561945"
       sodipodi:arc-type="slice"
       d="m 47.945996,31.01266 a 7.9375,7.9375 0 0 1 -5.61266,2.32484 7.9375,7.9375 0 0 1 -5.61266,-2.32484 L 42.333336,25.4 Z" />
    <path
       style="fill:#da593f;fill-opacity:1;stroke:#463f4e;stroke-width:0.79375;stroke-linecap:round;stroke-linejoin:round;stroke-dasharray:none;stroke-opacity:1;paint-order:fill markers stroke"
       id="path14"
       sodipodi:type="arc"
       sodipodi:cx="42.333332"
       sodipodi:cy="-42.333336"
       sodipodi:rx="7.9375"
       sodipodi:ry="7.9375"
       sodipodi:start="0.78539816"
       sodipodi:end="2.3561945"
       sodipodi:arc-type="slice"
       d="m 47.945992,-36.720676 a 7.9375,7.9375 0 0 1 -5.61266,2.32484 7.9375,7.9375 0 0 1 -5.61266,-2.32484 l 5.61266,-5.61266 z"
       transform="rotate(90)" />
    <path
       style="fill:#da593f;fill-opacity:1;stroke:#463f4e;stroke-width:0.79375;stroke-linecap:round;stroke-linejoin:round;stroke-dasharray:none;stroke-opacity:1;paint-order:fill markers stroke"
       id="path15"
       sodipodi:type="arc"
       sodipodi:cx="59.266666"
       sodipodi:cy="42.333336"
       sodipodi:rx="7.9375"
       sodipodi:ry="7.9375"
       sodipodi:start="0.78539816"
       sodipodi:end="2.3561945"
       sodipodi:arc-type="slice"
       d="m 64.879327,47.945996 a 7.9375,7.9375 0 0 1 -5.612661,2.32484 7.9375,7.9375 0 0 1 -5.61266,-2.32484 l 5.61266,-5.61266 z"
       transform="matrix(0,1,1,0,0,0)" />
    <path
       style="fill:#5169da;fill-opacity:1;stroke:#463f4e;stroke-width:0.79375;stroke-linecap:round;stroke-linejoin:round;stroke-dasharray:none;stroke-opacity:1;paint-order:fill markers stroke"
       id="path16"
       sodipodi:type="arc"
       sodipodi:cx="-59.266666"
       sodipodi:cy="-8.4666662"
       sodipodi:rx="7.9375"
       sodipodi:ry="7.9375"
       sodipodi:start="0.78539816"
       sodipodi:end="2.3561945"
       sodipodi:arc-type="slice"
       d="m -53.654006,-2.8540062 a 7.9375,7.9375 0 0 1 -5.61266,2.32483998 7.9375,7.9375 0 0 1 -5.612661,-2.32483998 l 5.612661,-5.61266 z"
       transform="scale(-1)" />
    <path
       style="fill:#5169da;fill-opacity:1;stroke:#463f4e;stroke-width:0.79375;stroke-linecap:round;stroke-linejoin:round;stroke-dasharray:none;stroke-opacity:1;paint-order:fill markers stroke"
       id="path17"
       sodipodi:type="arc"
       sodipodi:cx="59.266666"
       sodipodi:cy="25.4"
       sodipodi:rx="7.9375"
       sodipodi:ry="7.9375"
       sodipodi:start="0.78539816"
       sodipodi:end="2.3561945"
       sodipodi:arc-type="slice"
       d="m 64.879327,31.01266 a 7.9375,7.9375 0 0 1 -5.612661,2.32484 7.9375,7.9375 0 0 1 -5.61266,-2.32484 L 59.266666,25.4 Z" />
    <path
       style="fill:#5169da;fill-opacity:1;stroke:#463f4e;stroke-width:0.79375;stroke-linecap:round;stroke-linejoin:round;stroke-dasharray:none;stroke-opacity:1;paint-order:fill markers stroke"
       id="path18"
       sodipodi:type="arc"
       sodipodi:cx="42.333332"
       sodipodi:cy="-59.266666"
       sodipodi:rx="7.9375"
       sodipodi:ry="7.9375"
       sodipodi:start="0.78539816"
       sodipodi:end="2.3561945"
       sodipodi:arc-type="slice"
       d="m 47.945992,-53.654006 a 7.9375,7.9375 0 0 1 -5.61266,2.32484 7.9375,7.9375 0 0 1 -5.61266,-2.32484 l 5.61266,-5.61266 z"
       transform="rotate(90)" />
    <path
       style="fill:#5169da;fill-opacity:1;stroke:#463f4e;stroke-width:0.79375;stroke-linecap:round;stroke-linejoin:round;stroke-dasharray:none;stroke-opacity:1;paint-order:fill markers stroke"
       id="path19"
       sodipodi:type="arc"
       sodipodi:cx="59.266666"
       sodipodi:cy="59.266666"
       sodipodi:rx="7.9375"
       sodipodi:ry="7.9375"
       sodipodi:start="0.78539816"
       sodipodi:end="2.3561945"
       sodipodi:arc-type="slice"
       d="m 64.879327,64.879326 a 7.9375,7.9375 0 0 1 -5.612661,2.32484 7.9375,7.9375 0 0 1 -5.61266,-2.32484 l 5.61266,-5.61266 z"
       transform="matrix(0,1,1,0,0,0)" />
    <path
       style="fill:#d2c01a;fill-opacity:1;stroke:#463f4e;stroke-width:0.79375;stroke-linecap:round;stroke-linejoin:round;stroke-dasharray:none;stroke-opacity:1;paint-order:fill markers stroke"
       id="path20"
       sodipodi:type="arc"
       sodipodi:cx="-76.199997"
       sodipodi:cy="-8.4666662"
       sodipodi:rx="7.9375"
       sodipodi:ry="7.9375"
       sodipodi:start="0.78539816"
       sodipodi:end="2.3561945"
       sodipodi:arc-type="slice"
       d="m -70.587337,-2.8540062 a 7.9375,7.9375 0 0 1 -5.61266,2.32483998 7.9375,7.9375 0 0 1 -5.61266,-2.32483998 l 5.61266,-5.61266 z"
       transform="scale(-1)" />
    <path
       style="fill:#d2c01a;fill-opacity:1;stroke:#463f4e;stroke-width:0.79375;stroke-linecap:round;stroke-linejoin:round;stroke-dasharray:none;stroke-opacity:1;paint-order:fill markers stroke"
       id="path21"
       sodipodi:type="arc"
       sodipodi:cx="76.199997"
       sodipodi:cy="25.4"
       sodipodi:rx="7.9375"
       sodipodi:ry="7.9375"
       sodipodi:start="0.78539816"
       sodipodi:end="2.3561945"
       sodipodi:arc-type="slice"
       d="m 81.812657,31.01266 a 7.9375,7.9375 0 0 1 -5.61266,2.32484 7.9375,7.9375 0 0 1 -5.61266,-2.32484 L 76.199997,25.4 Z" />
    <path
       style="fill:#d2c01a;fill-opacity:1;stroke:#463f4e;stroke-width:0.79375;stroke-linecap:round;stroke-linejoin:round;stroke-dasharray:none;stroke-opacity:1;paint-order:fill markers stroke"
       id="path22"
       sodipodi:type="arc"
       sodipodi:cx="42.333332"
       sodipodi:cy="-76.199997"
       sodipodi:rx="7.9375"
       sodipodi:ry="7.9375"
       sodipodi:start="0.78539816"
       sodipodi:end="2.3561945"
       sodipodi:arc-type="slice"
       d="m 47.945992,-70.587337 a 7.9375,7.9375 0 0 1 -5.61266,2.32484 7.9375,7.9375 0 0 1 -5.61266,-2.32484 l 5.61266,-5.61266 z"
       transform="rotate(90)" />
    <path
       style="fill:#d2c01a;fill-opacity:1;stroke:#463f4e;stroke-width:0.79375;stroke-linecap:round;stroke-linejoin:round;stroke-dasharray:none;stroke-opacity:1;paint-order:fill markers stroke"
       id="path23"
       sodipodi:type="arc"
       sodipodi:cx="59.266666"
       sodipodi:cy="76.199997"
       sodipodi:rx="7.9375"
       sodipodi:ry="7.9375"
       sodipodi:start="0.78539816"
       sodipodi:end="2.3561945"
       sodipodi:arc-type="slice"
       d="m 64.879327,81.812657 a 7.9375,7.9375 0 0 1 -5.612661,2.32484 7.9375,7.9375 0 0 1 -5.61266,-2.32484 l 5.61266,-5.61266 z"
       transform="matrix(0,1,1,0,0,0)" />
    <path
       style="fill:#749277;fill-opacity:1;stroke:#463f4e;stroke-width:0.79375;stroke-linecap:round;stroke-linejoin:round;stroke-dasharray:none;stroke-opacity:1;paint-order:fill markers stroke"
       id="path24"
       sodipodi:type="arc"
       sodipodi:cx="-8.4666634"
       sodipodi:cy="-8.4666662"
       sodipodi:rx="7.9375"
       sodipodi:ry="7.9375"
       sodipodi:start="0.78539816"
       sodipodi:end="2.3561945"
       sodipodi:arc-type="slice"
       d="m -2.8540033,-2.8540062 a 7.9375,7.9375 0 0 1 -5.6126601,2.32483998 7.9375,7.9375 0 0 1 -5.6126596,-2.32483998 l 5.6126596,-5.61266 z"
       transform="scale(-1)" />
    <path
       style="fill:#749277;fill-opacity:1;stroke:#463f4e;stroke-width:0.79375;stroke-linecap:round;stroke-linejoin:round;stroke-dasharray:none;stroke-opacity:1;paint-order:fill markers stroke"
       id="path25"
       sodipodi:type="arc"
       sodipodi:cx="8.4666634"
       sodipodi:cy="25.4"
       sodipodi:rx="7.9375"
       sodipodi:ry="7.9375"
       sodipodi:start="0.78539816"
       sodipodi:end="2.3561945"
       sodipodi:arc-type="slice"
       d="M 14.079323,31.01266 A 7.9375,7.9375 0 0 1 8.4666634,33.3375 7.9375,7.9375 0 0 1 2.8540032,31.01266 L 8.4666634,25.4 Z" />
    <path
       style="fill:#749277;fill-opacity:1;stroke:#463f4e;stroke-width:0.79375;stroke-linecap:round;stroke-linejoin:round;stroke-dasharray:none;stroke-opacity:1;paint-order:fill markers stroke"
       id="path26"
       sodipodi:type="arc"
       sodipodi:cx="42.333332"
       sodipodi:cy="-8.4666634"
       sodipodi:rx="7.9375"
       sodipodi:ry="7.9375"
       sodipodi:start="0.78539816"
       sodipodi:end="2.3561945"
       sodipodi:arc-type="slice"
       d="m 47.945992,-2.8540033 a 7.9375,7.9375 0 0 1 -5.61266,2.32483994 7.9375,7.9375 0 0 1 -5.61266,-2.32483994 l 5.61266,-5.6126601 z"
       transform="rotate(90)" />
    <path
       style="fill:#749277;fill-opacity:1;stroke:#463f4e;stroke-width:0.79375;stroke-linecap:round;stroke-linejoin:round;stroke-dasharray:none;stroke-opacity:1;paint-order:fill markers stroke"
       id="path27"
       sodipodi:type="arc"
       sodipodi:cx="59.266666"
       sodipodi:cy="8.4666634"
       sodipodi:rx="7.9375"
       sodipodi:ry="7.9375"
       sodipodi:start="0.78539816"
       sodipodi:end="2.3561945"
       sodipodi:arc-type="slice"
       d="m 64.879327,14.079323 a 7.9375,7.9375 0 0 1 -5.612661,2.32484 7.9375,7.9375 0 0 1 -5.61266,-2.32484 l 5.61266,-5.6126596 z"
       transform="matrix(0,1,1,0,0,1.6666666e-7)" />
    <circle
       style="fill:#463f4e;fill-opacity:1;stroke:#463f4e;stroke-width:0.79375;stroke-linecap:round;stroke-linejoin:round;stroke-dasharray:none;stroke-opacity:1;paint-order:fill markers stroke"
       id="path1"
       transform="scale(-1)"
       cx="-8.4666634"
       cy="-76.199997"
       r="7.9375" />
    <circle
       style="fill:#463f4e;fill-opacity:0;stroke:#d2c01a;stroke-width:0.79375;stroke-linecap:round;stroke-linejoin:round;stroke-dasharray:none;stroke-opacity:1;paint-order:fill markers stroke"
       id="circle1"
       transform="scale(-1)"
       cx="-76.199997"
       cy="-76.199997"
       r="7.9375" />
  </g>
</svg>
