<?xml version="1.0" encoding="UTF-8" standalone="no"?>
<!-- Created with Inkscape (http://www.inkscape.org/) -->

<svg
   width="192"
   height="192"
   viewBox="0 0 50.799999 50.799999"
   version="1.1"
   id="svg1"
   inkscape:version="1.3.2 (091e20e, 2023-11-25, custom)"
   sodipodi:docname="wallshadow.svg"
   inkscape:export-filename="wallshadow.png"
   inkscape:export-xdpi="96"
   inkscape:export-ydpi="96"
   xmlns:inkscape="http://www.inkscape.org/namespaces/inkscape"
   xmlns:sodipodi="http://sodipodi.sourceforge.net/DTD/sodipodi-0.dtd"
   xmlns:xlink="http://www.w3.org/1999/xlink"
   xmlns="http://www.w3.org/2000/svg"
   xmlns:svg="http://www.w3.org/2000/svg">
  <sodipodi:namedview
     id="namedview1"
     pagecolor="#ffffff"
     bordercolor="#000000"
     borderopacity="0.25"
     inkscape:showpageshadow="2"
     inkscape:pageopacity="0.0"
     inkscape:pagecheckerboard="0"
     inkscape:deskcolor="#d1d1d1"
     inkscape:document-units="mm"
     showgrid="true"
     inkscape:zoom="2.8284271"
     inkscape:cx="135.23417"
     inkscape:cy="123.56691"
     inkscape:window-width="1920"
     inkscape:window-height="1009"
     inkscape:window-x="-8"
     inkscape:window-y="-8"
     inkscape:window-maximized="1"
     inkscape:current-layer="layer1">
    <inkscape:grid
       id="grid1"
       units="px"
       originx="0"
       originy="0"
       spacingx="2.1166666"
       spacingy="2.1166666"
       empcolor="#0099e5"
       empopacity="0.30196078"
       color="#0099e5"
       opacity="0.14901961"
       empspacing="8"
       dotted="false"
       gridanglex="30"
       gridanglez="30"
       visible="true" />
  </sodipodi:namedview>
  <defs
     id="defs1">
    <pattern
       inkscape:collect="always"
       xlink:href="#pattern9"
       preserveAspectRatio="xMidYMid"
       id="pattern1"
       patternTransform="matrix(0,0.09682894,-0.22998996,0,-19.049999,-16.933334)"
       x="0"
       y="0" />
    <pattern
       inkscape:collect="always"
       xlink:href="#pattern9"
       preserveAspectRatio="xMidYMid"
       id="pattern10"
       patternTransform="matrix(0.09682894,0,2.262333e-8,-0.22998996,16.933333,14.816666)" />
    <pattern
       inkscape:collect="always"
       xlink:href="#shading5"
       preserveAspectRatio="xMidYMid"
       id="pattern9"
       patternTransform="matrix(0,0.09682894,-0.22998996,0,0,0)"
       x="0"
       y="0" />
    <pattern
       patternUnits="userSpaceOnUse"
       width="349.7577"
       height="27.6099"
       patternTransform="scale(0.2)"
       preserveAspectRatio="xMidYMid"
       id="shading5"
       style="fill:#463f4e"
       inkscape:label="Lines shading big"
       inkscape:collect="always"
       inkscape:isstock="true">
      <path
         id="path37"
         style="stroke-width:0.487199;stroke-linecap:square;paint-order:markers fill stroke;stop-color:#000000"
         d="m 349.5257,0 h 0.232 v 27.6099 h -0.232 z m -18.396,0 h 1.0542 v 27.6099 h -1.0542 z m -18.3961,0 h 1.8765 v 27.6099 h -1.8765 z m -18.3961,0 h 2.6988 v 27.6099 h -2.6988 z m -18.3961,0 h 3.5211 v 27.6099 h -3.5211 z m -18.3961,0 h 4.3434 v 27.6099 h -4.3434 z m -18.3961,0 h 5.1658 v 27.6099 h -5.1658 z m -18.3961,0 h 5.9881 v 27.6099 h -5.9881 z M 202.357,0 h 6.8104 v 27.6099 h -6.8104 z m -18.3961,0 h 7.6327 v 27.6099 h -7.6327 z m -18.3961,0 h 8.455 v 27.6099 h -8.455 z m -18.3961,0 h 9.2773 v 27.6099 h -9.2773 z m -18.396,0 h 10.0995 v 27.6099 h -10.0995 z m -18.3961,0 h 10.9218 V 27.6099 H 110.3766 Z M 91.9805,0 h 11.7441 V 27.6099 H 91.9805 Z M 73.5844,0 H 86.1509 V 27.6099 H 73.5844 Z M 55.1883,0 H 68.5771 V 27.6099 H 55.1883 Z M 36.7922,0 H 51.0033 V 27.6099 H 36.7922 Z M 18.3961,0 H 33.4295 V 27.6099 H 18.3961 Z M 0,0 H 15.8557 V 27.6099 H 0 Z"
         sodipodi:nodetypes="cccccccccc" />
    </pattern>
  </defs>
  <g
     inkscape:label="Layer 1"
     inkscape:groupmode="layer"
     id="layer1">
    <path
       style="fill:#749277;fill-opacity:1;stroke:#635f41;stroke-width:0;stroke-linecap:round;stroke-linejoin:round;paint-order:fill markers stroke"
       d="M 0,16.933333 33.866666,50.799997 H 50.799997 V 33.866666 L 16.933333,0 H 0 Z"
       id="path10" />
    <path
       style="fill:url(#pattern1);fill-opacity:1;stroke:#635f41;stroke-width:0;stroke-linecap:round;stroke-linejoin:round;paint-order:fill markers stroke"
       d="M 0,16.933333 H 16.933333 L 50.8,50.8 l -16.933334,-3e-6 z"
       id="path7"
       sodipodi:nodetypes="ccccc" />
    <path
       style="fill:url(#pattern10);fill-opacity:1;stroke:#635f41;stroke-width:0;stroke-linecap:round;stroke-linejoin:round;paint-order:fill markers stroke"
       d="M 16.933333,-3.6171469e-7 V 16.933333 L 50.799999,50.8 l -3e-6,-16.933334 z"
       id="path9"
       sodipodi:nodetypes="ccccc" />
  </g>
</svg>
